<svg viewBox="0 0 39 38" fill="none" xmlns="http://www.w3.org/2000/svg">
<g clip-path="url(#clip0_78_110)">
<path d="M19.4659 21.9338C20.8925 21.9338 22.0489 20.7606 22.0489 19.3134C22.0489 17.8661 20.8925 16.6929 19.4659 16.6929C18.0393 16.6929 16.8828 17.8661 16.8828 19.3134C16.8828 20.7606 18.0393 21.9338 19.4659 21.9338Z" fill="white"/>
<path d="M25.9034 1.22976C22.7835 -1.9751 19.4668 2.10197 19.4668 2.10197V9.34902L20.0342 9.73666V15.3149L21.6372 15.9283C21.6372 15.9283 21.7203 16.1842 24.4715 11.2446C28.0652 4.50537 26.2798 1.6523 25.9044 1.23073H25.9034V1.22976Z" fill="white"/>
<path d="M13.0297 1.22975C12.6543 1.65132 10.8689 4.5044 14.4626 11.2436C17.2129 16.1842 17.2969 15.9274 17.2969 15.9274L18.8999 15.3139V9.73568L19.4673 9.34804V2.10099C19.4673 2.10099 16.1497 -1.97608 13.0307 1.22879H13.0297V1.22975Z" fill="white"/>
<path d="M38.4987 19.9646C40.5391 15.9651 35.693 14.0229 35.693 14.0229L28.8991 16.2616L28.7109 16.9284L23.4818 18.6514L23.4015 20.3871C23.4015 20.3871 23.1866 20.547 28.668 21.6751C36.0962 23.0619 38.2197 20.4569 38.4987 19.9646Z" fill="white"/>
<path d="M34.5222 7.5427C34.0111 7.31108 30.7842 6.46891 25.5761 12.0181C21.7941 16.1979 22.0597 16.1988 22.0597 16.1988L23.1306 17.5556L28.3597 15.8325L28.8985 16.2599L35.6924 14.0212C35.6924 14.0212 38.4894 9.56136 34.5222 7.54076V7.5427Z" fill="white"/>
<path d="M24.4173 37.9089C28.7781 38.751 29.229 33.4839 29.229 33.4839L25.1738 27.518L24.4899 27.5258L21.369 22.9341L19.7058 23.3518C19.7058 23.3518 19.4938 23.189 19.9934 28.8399C20.8054 36.4581 23.8718 37.778 24.4173 37.9098V37.9089Z" fill="white"/>
<path d="M35.0165 30.4951C35.0891 29.9321 34.964 26.5547 28.234 23.0756C23.2055 20.5927 23.28 20.8514 23.28 20.8514L22.3037 22.2799L25.4246 26.8716L25.1743 27.517L29.2294 33.4829C29.2294 33.4829 34.2418 34.9288 35.0165 30.4942V30.4951Z" fill="white"/>
<path d="M3.8554 30.3488C4.58619 34.7912 9.61284 33.3976 9.61284 33.3976L13.7272 27.4734L13.4836 26.8251L16.6503 22.2654L15.6884 20.8272C15.6884 20.8272 15.7658 20.5694 10.7124 23C3.94807 26.4093 3.78758 29.7848 3.8554 30.3488Z" fill="white"/>
<path d="M14.3791 37.872C14.9256 37.747 18.0054 36.458 18.8938 28.8486C19.4507 23.2025 19.2367 23.3634 19.2367 23.3634L17.5784 22.9282L14.4116 27.4879L13.7276 27.4734L9.61328 33.3976C9.61328 33.3976 10.0107 38.6686 14.3801 37.872H14.3791Z" fill="white"/>
<path d="M4.50569 7.52338C0.532707 9.53236 3.31829 14.001 3.31829 14.001L10.1065 16.258L10.6462 15.8316L15.8706 17.5683L16.9443 16.2144C16.9443 16.2144 17.2099 16.2144 13.4394 12.024C8.24559 6.46026 5.01676 7.2937 4.50569 7.52435V7.52338Z" fill="white"/>
<path d="M0.496427 19.9349C0.774411 20.4282 2.8913 23.038 10.3233 21.6725C15.8076 20.559 15.5936 20.3991 15.5936 20.3991L15.5181 18.6624L10.2937 16.9258L10.1074 16.258L3.31926 14.001C3.31926 14.001 -1.53257 15.9295 0.497382 19.9349H0.496427Z" fill="white"/>
</g>
<defs>
<clipPath id="clip0_78_110">
<rect width="39" height="38" fill="white"/>
</clipPath>
</defs>
</svg>
