<svg viewBox="0 0 1438 24" fill="none" xmlns="http://www.w3.org/2000/svg">
<path d="M1 15.1942L10.4922 10.8771L25.6094 4.00323L32.6406 1.90983L38.6172 1.04379L44.5938 1.11797L50.5703 2.1245L57.25 4.21926L66.0391 8.06731L83.9688 16.2102L91 18.1871L96.9766 18.9348L102.953 18.7377L108.93 17.6164L115.609 15.4181L124.75 11.3242L140.922 3.95275L147.953 1.87981L153.93 1.03477L159.906 1.13082L165.883 2.15798L172.562 4.27141L181.352 8.1334L199.281 16.2587L205.961 18.1435L211.938 18.9242L217.914 18.7611L223.891 17.6715L230.57 15.5016L239.359 11.5984L256.586 3.77598L263.617 1.77685L269.594 1.00675L275.57 1.18077L281.547 2.28054L288.227 4.45958L297.367 8.53964L313.891 16.0568L320.922 18.0988L326.898 18.9123L332.875 18.7833L338.852 17.7255L345.531 15.5842L354.32 11.7017L371.898 3.72711L378.93 1.74893L384.906 1L390.883 1.19594L396.859 2.31602L403.539 4.51319L412.68 8.60637L428.852 15.9788L435.883 18.0529L441.859 18.8992L447.836 18.8043L453.812 17.7784L460.492 15.6661L469.281 11.8049L487.211 3.67857L493.891 1.79261L499.867 1.01074L505.844 1.17251L511.82 2.261L518.5 4.42983L527.289 8.33225L544.516 16.1556L551.547 18.156L557.523 18.9273L563.5 18.7546L569.477 17.6559L576.156 15.478L585.297 11.3987L601.82 3.88061L608.852 1.83737L614.828 1.02262L620.805 1.15032L626.781 2.20701L633.461 4.34722L642.25 8.22886L659.828 16.2045L666.859 18.1839L672.836 18.934L678.812 18.7394L684.789 17.6205L691.469 15.4243L700.609 11.332L716.781 3.95858L723.812 1.88327L729.789 1.0358L735.766 1.12931L741.742 2.15409L748.422 4.26537L757.211 8.12573L775.141 16.2531L781.82 18.1402L787.797 18.9233L793.773 18.7628L799.75 17.6755L806.43 15.5077L815.219 11.606L832.445 3.7817L839.477 1.78009L845.453 1.00756L851.43 1.17904L857.406 2.27649L864.086 4.45342L873.227 8.53192L889.75 16.051L896.781 18.0954L902.758 18.9114L908.734 18.785L914.711 17.7295L921.391 15.5903L930.18 11.7094L947.758 3.73273L954.789 1.75217L960.766 1.00076L966.742 1.19416L972.719 2.31186L979.398 4.50698L988.539 8.59865L1004.71 15.973L1011.74 18.0495L1017.72 18.8982L1023.7 18.8059L1029.67 17.7823L1036.35 15.6721L1045.14 11.8126L1063.07 3.68419L1069.75 1.79591L1075.73 1.01155L1081.7 1.17083L1087.68 2.25695L1094.36 4.42367L1103.15 8.32453L1120.38 16.1499L1127.41 18.1527L1133.38 18.9265L1139.36 18.7563L1145.34 17.66L1152.02 15.4841L1161.16 11.4064L1177.68 3.88634L1184.71 1.84077L1190.69 1.02359L1196.66 1.1487L1202.64 2.20301L1209.32 4.34106L1218.11 8.22119L1235.69 16.1989L1242.72 18.1807L1248.7 18.9333L1254.67 18.7412L1260.65 17.6247L1267.33 15.4306L1276.47 11.3397L1292.64 3.96441L1299.67 1.88672L1305.65 1.03682L1311.62 1.1278L1317.6 2.15021L1324.28 4.25927L1333.07 8.11806L1351 16.2475L1357.68 18.1369L1363.66 18.9225L1369.63 18.7645L1375.61 17.6796L1382.29 15.5139L1391.08 11.6138L1408.3 3.78737L1415.34 1.78338L1421.31 1.00837L1427.29 1.17731L1433.27 2.27239L1439.95 4.44721L1441 4.86576L1441.22 24H1V15.1942Z" fill="#AAC5E9"/>
<path d="M1 15.1942L10.4922 10.8771L25.6094 4.00323L32.6406 1.90983L38.6172 1.04379L44.5937 1.11797L50.5703 2.1245L57.25 4.21926L66.0391 8.06731L83.9687 16.2102L91 18.1871L96.9766 18.9348L102.953 18.7377L108.93 17.6164L115.609 15.4181L124.75 11.3242L140.922 3.95275L147.953 1.87981L153.93 1.03477L159.906 1.13082L165.883 2.15798L172.562 4.27141L181.352 8.1334L199.281 16.2587L205.961 18.1435L211.937 18.9242L217.914 18.7611L223.891 17.6715L230.57 15.5016L239.359 11.5984L256.586 3.77598L263.617 1.77685L269.594 1.00675L275.57 1.18077L281.547 2.28054L288.227 4.45958L297.367 8.53964L313.891 16.0568L320.922 18.0988L326.898 18.9123L332.875 18.7833L338.852 17.7255L345.531 15.5842L354.32 11.7017L371.898 3.72711L378.93 1.74893L384.906 1L390.883 1.19594L396.859 2.31602L403.539 4.51319L412.68 8.60637L428.852 15.9788L435.883 18.0529L441.859 18.8992L447.836 18.8043L453.812 17.7784L460.492 15.6661L469.281 11.8049L487.211 3.67857L493.891 1.79261L499.867 1.01074L505.844 1.17251L511.82 2.261L518.5 4.42983L527.289 8.33225L544.516 16.1556L551.547 18.156L557.523 18.9273L563.5 18.7546L569.477 17.6559L576.156 15.478L585.297 11.3987L601.82 3.88062L608.852 1.83737L614.828 1.02262L620.805 1.15032L626.781 2.20701L633.461 4.34722L642.25 8.22886L659.828 16.2045L666.859 18.1839L672.836 18.934L678.812 18.7394L684.789 17.6205L691.469 15.4243L700.609 11.332L716.781 3.95858L723.812 1.88327L729.789 1.0358L735.766 1.12931L741.742 2.15409L748.422 4.26537L757.211 8.12573L775.141 16.2531L781.82 18.1402L787.797 18.9233L793.773 18.7628L799.75 17.6755L806.43 15.5077L815.219 11.606L832.445 3.7817L839.477 1.78009L845.453 1.00756L851.43 1.17904L857.406 2.27649L864.086 4.45342L873.227 8.53192L889.75 16.051L896.781 18.0954L902.758 18.9114L908.734 18.785L914.711 17.7295L921.391 15.5903L930.18 11.7094L947.758 3.73273L954.789 1.75217L960.766 1.00076L966.742 1.19416L972.719 2.31186L979.398 4.50698L988.539 8.59865L1004.71 15.973L1011.74 18.0495L1017.72 18.8982L1023.7 18.8059L1029.67 17.7823L1036.35 15.6721L1045.14 11.8126L1063.07 3.68419L1069.75 1.79591L1075.73 1.01155L1081.7 1.17083L1087.68 2.25695L1094.36 4.42367L1103.15 8.32453L1120.37 16.1499L1127.41 18.1527L1133.38 18.9265L1139.36 18.7563L1145.34 17.66L1152.02 15.4841L1161.16 11.4064L1177.68 3.88634L1184.71 1.84077L1190.69 1.02359L1196.66 1.1487L1202.64 2.20301L1209.32 4.34106L1218.11 8.22119L1235.69 16.1989L1242.72 18.1807L1248.7 18.9333L1254.67 18.7412L1260.65 17.6247L1267.33 15.4306L1276.47 11.3397L1292.64 3.96441L1299.67 1.88672L1305.65 1.03682L1311.62 1.1278L1317.6 2.15021L1324.28 4.25927L1333.07 8.11807L1351 16.2475L1357.68 18.1369L1363.66 18.9225L1369.63 18.7645L1375.61 17.6796L1382.29 15.5139L1391.08 11.6138L1408.3 3.78737L1415.34 1.78338L1421.31 1.00837L1427.29 1.17731L1433.27 2.27239L1439.95 4.44721L1441 4.86576" stroke="#202020" stroke-width="2" stroke-miterlimit="10" stroke-linecap="round" stroke-linejoin="round"/>
</svg>
