<svg viewBox="0 0 1440 23" fill="none" xmlns="http://www.w3.org/2000/svg">
<path d="M-4 14.1942L5.51855 9.87709L20.6777 3.00323L27.7285 0.90983L33.7217 0.043788L39.7148 0.117974L45.708 1.1245L52.4062 3.21926L61.2197 7.06731L79.1992 15.2102L86.25 17.1871L92.2432 17.9348L98.2363 17.7377L104.229 16.6164L110.928 14.4181L120.094 10.3242L136.311 2.95275L143.361 0.87981L149.354 0.0347713L155.348 0.130824L161.341 1.15798L168.039 3.27141L176.853 7.1334L194.832 15.2587L201.53 17.1435L207.523 17.9242L213.517 17.7611L219.51 16.6715L226.208 14.5016L235.021 10.5984L252.296 2.77598L259.347 0.776846L265.34 0.00674908L271.333 0.180767L277.326 1.28054L284.024 3.45958L293.19 7.53964L309.76 15.0568L316.811 17.0988L322.804 17.9123L328.797 17.7833L334.79 16.7255L341.488 14.5842L350.302 10.7017L367.929 2.72711L374.979 0.748932L380.973 0L386.966 0.195939L392.959 1.31602L399.657 3.51319L408.823 7.60637L425.04 14.9788L432.091 17.0529L438.084 17.8992L444.077 17.8043L450.07 16.7784L456.769 14.6661L465.582 10.8049L483.562 2.67857L490.26 0.792612L496.253 0.0107445L502.246 0.172506L508.239 1.261L514.938 3.42983L523.751 7.33225L541.025 15.1556L548.076 17.156L554.069 17.9273L560.062 17.7546L566.056 16.6559L572.754 14.478L581.92 10.3987L598.489 2.88062L605.54 0.837372L611.533 0.0226229L617.526 0.150316L623.52 1.20701L630.218 3.34722L639.031 7.22886L656.658 15.2045L663.709 17.1839L669.702 17.934L675.695 17.7394L681.688 16.6205L688.387 14.4243L697.553 10.332L713.77 2.95858L720.82 0.883266L726.813 0.0357971L732.807 0.129312L738.8 1.15409L745.498 3.26537L754.312 7.12573L772.291 15.2531L778.989 17.1402L784.982 17.9233L790.976 17.7628L796.969 16.6755L803.667 14.5077L812.48 10.606L829.755 2.7817L836.806 0.780086L842.799 0.00755897L848.792 0.17904L854.785 1.27649L861.483 3.45342L870.649 7.53192L887.219 15.051L894.27 17.0954L900.263 17.9114L906.256 17.785L912.249 16.7295L918.947 14.5903L927.761 10.7094L945.388 2.73273L952.438 0.752171L958.432 0.000755897L964.425 0.194158L970.418 1.31186L977.116 3.50698L986.282 7.59865L1002.5 14.973L1009.55 17.0495L1015.54 17.8982L1021.54 17.8059L1027.53 16.7823L1034.23 14.6721L1043.04 10.8126L1061.02 2.68419L1067.72 0.795905L1073.71 0.0115544L1079.71 0.170833L1085.7 1.25695L1092.4 3.42367L1101.21 7.32453L1118.48 15.1499L1125.54 17.1527L1131.53 17.9265L1137.52 17.7563L1143.51 16.66L1150.21 14.4841L1159.38 10.4064L1175.95 2.88634L1183 0.840773L1188.99 0.0235948L1194.99 0.148696L1200.98 1.20301L1207.68 3.34106L1216.49 7.22119L1234.12 15.1989L1241.17 17.1807L1247.16 17.9333L1253.15 17.7412L1259.15 16.6247L1265.85 14.4306L1275.01 10.3397L1291.23 2.96441L1298.28 0.886721L1304.27 0.036823L1310.27 0.127801L1316.26 1.15021L1322.96 3.25927L1331.77 7.11807L1349.75 15.2475L1356.45 17.1369L1362.44 17.9225L1368.43 17.7645L1374.43 16.6796L1381.13 14.5139L1389.94 10.6138L1407.21 2.78737L1414.26 0.783379L1420.26 0.00836886L1426.25 0.177312L1432.24 1.27239L1438.94 3.44721L1440 3.86576V23H-4V14.1942Z" fill="#202020"/>
</svg>
