<svg viewBox="0 0 1440 25" fill="none" xmlns="http://www.w3.org/2000/svg">
<path d="M0 15.4411L9.49219 11.0489L24.6094 4.05546L31.6406 1.92565L37.6172 1.04455L43.5938 1.12003L49.5703 2.14406L56.25 4.27524L65.0391 8.19022L82.9688 16.4747L90 18.486L95.9766 19.2467L101.953 19.0461L107.93 17.9054L114.609 15.6689L123.75 11.5038L139.922 4.0041L146.953 1.89511L152.93 1.03538L158.906 1.1331L164.883 2.17812L171.562 4.32831L180.352 8.25746L198.281 16.5241L204.961 18.4416L210.938 19.2359L216.914 19.07L222.891 17.9614L229.57 15.7538L238.359 11.7827L255.586 3.82426L262.617 1.79036L268.594 1.00687L274.57 1.18391L280.547 2.30281L287.227 4.51974L296.367 8.67076L312.891 16.3186L319.922 18.3961L325.898 19.2238L331.875 19.0926L337.852 18.0163L344.531 15.8379L353.32 11.8878L370.898 3.77454L377.93 1.76196L383.906 1L389.883 1.19935L395.859 2.3389L402.539 4.57429L411.68 8.73866L427.852 16.2393L434.883 18.3495L440.859 19.2105L446.836 19.114L452.812 18.0702L459.492 15.9211L468.281 11.9928L486.211 3.72516L492.891 1.8064L498.867 1.01093L504.844 1.17551L510.82 2.28293L517.5 4.48948L526.289 8.45977L543.516 16.4192L550.547 18.4544L556.523 19.2391L562.5 19.0633L568.477 17.9456L575.156 15.7298L584.297 11.5795L600.82 3.93071L607.852 1.85193L613.828 1.02302L619.805 1.15293L625.781 2.228L632.461 4.40543L641.25 8.35458L658.828 16.469L665.859 18.4828L671.836 19.2459L677.812 19.048L683.789 17.9096L690.469 15.6752L699.609 11.5117L715.781 4.01003L722.812 1.89863L728.789 1.03642L734.766 1.13156L740.742 2.17416L747.422 4.32216L756.211 8.24966L774.141 16.5184L780.82 18.4383L786.797 19.2351L792.773 19.0717L798.75 17.9655L805.43 15.76L814.219 11.7905L831.445 3.83008L838.477 1.79365L844.453 1.00769L850.43 1.18215L856.406 2.29869L863.086 4.51348L872.227 8.66291L888.75 16.3127L895.781 18.3927L901.758 19.2229L907.734 19.0943L913.711 18.0204L920.391 15.8441L929.18 11.8957L946.758 3.78026L953.789 1.76525L959.766 1.00077L965.742 1.19753L971.719 2.33467L978.398 4.56797L987.539 8.7308L1003.71 16.2334L1010.74 18.346L1016.72 19.2095L1022.7 19.1156L1028.67 18.0742L1035.35 15.9273L1044.14 12.0006L1062.07 3.73087L1068.75 1.80975L1074.73 1.01176L1080.7 1.1738L1086.68 2.27881L1093.36 4.48322L1102.15 8.45192L1119.38 16.4134L1126.41 18.451L1132.38 19.2382L1138.36 19.0651L1144.34 17.9498L1151.02 15.736L1160.16 11.5874L1176.68 3.93654L1183.71 1.8554L1189.69 1.02401L1195.66 1.15128L1201.64 2.22393L1208.32 4.39917L1217.11 8.34678L1234.69 16.4632L1241.72 18.4795L1247.7 19.2452L1253.67 19.0498L1259.65 17.9138L1266.33 15.6816L1275.47 11.5195L1291.64 4.01597L1298.67 1.90214L1304.65 1.03746L1310.62 1.13002L1316.6 2.17021L1323.28 4.31595L1332.07 8.24186L1350 16.5126L1356.68 18.4349L1362.66 19.2342L1368.63 19.0734L1374.61 17.9696L1381.29 15.7663L1390.08 11.7984L1407.3 3.83585L1414.34 1.797L1420.31 1.00851L1426.29 1.1804L1432.27 2.29452L1438.95 4.50717L1440 4.933V25H0V15.4411Z" fill="#ECF0FF"/>
<path d="M0 15.4411L9.49219 11.0489L24.6094 4.05546L31.6406 1.92565L37.6172 1.04455L43.5937 1.12003L49.5703 2.14406L56.25 4.27524L65.0391 8.19022L82.9687 16.4747L90 18.486L95.9766 19.2467L101.953 19.0461L107.93 17.9054L114.609 15.6689L123.75 11.5038L139.922 4.0041L146.953 1.89511L152.93 1.03538L158.906 1.1331L164.883 2.17812L171.562 4.32831L180.352 8.25746L198.281 16.5241L204.961 18.4416L210.937 19.2359L216.914 19.07L222.891 17.9614L229.57 15.7538L238.359 11.7827L255.586 3.82426L262.617 1.79036L268.594 1.00687L274.57 1.18391L280.547 2.30281L287.227 4.51974L296.367 8.67076L312.891 16.3186L319.922 18.3961L325.898 19.2238L331.875 19.0926L337.852 18.0163L344.531 15.8379L353.32 11.8878L370.898 3.77454L377.93 1.76196L383.906 1L389.883 1.19935L395.859 2.3389L402.539 4.57429L411.68 8.73866L427.852 16.2393L434.883 18.3495L440.859 19.2105L446.836 19.114L452.812 18.0702L459.492 15.9211L468.281 11.9928L486.211 3.72516L492.891 1.8064L498.867 1.01093L504.844 1.17551L510.82 2.28293L517.5 4.48948L526.289 8.45977L543.516 16.4192L550.547 18.4544L556.523 19.2391L562.5 19.0633L568.477 17.9456L575.156 15.7298L584.297 11.5795L600.82 3.93071L607.852 1.85193L613.828 1.02302L619.805 1.15293L625.781 2.228L632.461 4.40543L641.25 8.35458L658.828 16.469L665.859 18.4828L671.836 19.2459L677.812 19.048L683.789 17.9096L690.469 15.6752L699.609 11.5117L715.781 4.01003L722.812 1.89863L728.789 1.03642L734.766 1.13156L740.742 2.17416L747.422 4.32216L756.211 8.24966L774.141 16.5184L780.82 18.4383L786.797 19.2351L792.773 19.0717L798.75 17.9655L805.43 15.76L814.219 11.7905L831.445 3.83008L838.477 1.79365L844.453 1.00769L850.43 1.18215L856.406 2.29869L863.086 4.51348L872.227 8.66291L888.75 16.3127L895.781 18.3927L901.758 19.2229L907.734 19.0943L913.711 18.0204L920.391 15.8441L929.18 11.8957L946.758 3.78025L953.789 1.76525L959.766 1.00077L965.742 1.19753L971.719 2.33467L978.398 4.56797L987.539 8.7308L1003.71 16.2334L1010.74 18.346L1016.72 19.2095L1022.7 19.1156L1028.67 18.0742L1035.35 15.9273L1044.14 12.0006L1062.07 3.73087L1068.75 1.80975L1074.73 1.01176L1080.7 1.1738L1086.68 2.27881L1093.36 4.48322L1102.15 8.45192L1119.37 16.4134L1126.41 18.451L1132.38 19.2382L1138.36 19.0651L1144.34 17.9498L1151.02 15.736L1160.16 11.5874L1176.68 3.93654L1183.71 1.8554L1189.69 1.02401L1195.66 1.15128L1201.64 2.22393L1208.32 4.39917L1217.11 8.34678L1234.69 16.4632L1241.72 18.4795L1247.7 19.2452L1253.67 19.0498L1259.65 17.9138L1266.33 15.6816L1275.47 11.5195L1291.64 4.01597L1298.67 1.90214L1304.65 1.03746L1310.62 1.13002L1316.6 2.17021L1323.28 4.31595L1332.07 8.24186L1350 16.5126L1356.68 18.4349L1362.66 19.2342L1368.63 19.0734L1374.61 17.9696L1381.29 15.7663L1390.08 11.7984L1407.3 3.83585L1414.34 1.797L1420.31 1.00851L1426.29 1.1804L1432.27 2.29452L1438.95 4.50717L1440 4.933" stroke="#202020" stroke-width="2" stroke-miterlimit="10" stroke-linecap="round" stroke-linejoin="round"/>
</svg>
