<?xml version="1.0" encoding="UTF-8"?>
<svg id="_Слой_1" data-name="Слой 1" xmlns="http://www.w3.org/2000/svg" viewBox="0 0 408.26 392.11">
  <defs>
    <style>
      .cls-1 {
        fill: #fff;
      }
    </style>
  </defs>
  <g id="_Слой_2" data-name=" Слой 2">
    <circle class="cls-1" cx="203.77" cy="199.29" r="27.04"/>
    <g>
      <path class="cls-1" d="M271.15,12.69c-32.66-33.07-67.38,9-67.38,9v74.78l5.94,4v57.56l16.78,6.33s.87,2.64,29.67-48.33c37.62-69.54,18.93-98.98,15-103.33h-.01Z"/>
      <path class="cls-1" d="M136.39,12.69c-3.93,4.35-22.62,33.79,15,103.33,28.79,50.98,29.67,48.33,29.67,48.33l16.78-6.33v-57.56l5.94-4V21.68s-34.73-42.07-67.38-9h-.01Z"/>
    </g>
    <g>
      <path class="cls-1" d="M403.01,206.01c21.36-41.27-29.37-61.31-29.37-61.31l-71.12,23.1-1.97,6.88-54.74,17.78-.84,17.91s-2.25,1.65,55.13,13.29c77.76,14.31,99.99-12.57,102.91-17.65h0Z"/>
      <path class="cls-1" d="M361.38,77.83c-5.35-2.39-39.13-11.08-93.65,46.18-39.59,43.13-36.81,43.14-36.81,43.14l11.21,14,54.74-17.78,5.64,4.41,71.12-23.1s29.28-46.02-12.25-66.87v.02Z"/>
    </g>
    <g>
      <path class="cls-1" d="M255.6,391.17c45.65,8.69,50.37-45.66,50.37-45.66l-42.45-61.56-7.16.08-32.67-47.38-17.41,4.31s-2.22-1.68,3.01,56.63c8.5,78.61,40.6,92.23,46.31,93.59h0Z"/>
      <path class="cls-1" d="M366.56,314.67c.76-5.81-.55-40.66-71-76.56-52.64-25.62-51.86-22.95-51.86-22.95l-10.22,14.74,32.67,47.38-2.62,6.66,42.45,61.56s52.47,14.92,60.58-30.84h0Z"/>
    </g>
    <g>
      <path class="cls-1" d="M40.35,313.16c7.65,45.84,60.27,31.46,60.27,31.46l43.07-61.13-2.55-6.69,33.15-47.05-10.07-14.84s.81-2.66-52.09,22.42c-70.81,35.18-72.49,70.01-71.78,75.83h0Z"/>
      <path class="cls-1" d="M150.51,390.79c5.72-1.29,37.96-14.59,47.26-93.11,5.83-58.26,3.59-56.6,3.59-56.6l-17.36-4.49-33.15,47.05-7.16-.15-43.07,61.13s4.16,54.39,49.9,46.17h0Z"/>
    </g>
    <g>
      <path class="cls-1" d="M47.16,77.63c-41.59,20.73-12.43,66.84-12.43,66.84l71.06,23.29,5.65-4.4,54.69,17.92,11.24-13.97s2.78,0-36.69-43.24c-54.37-57.41-88.17-48.81-93.52-46.43h0Z"/>
      <path class="cls-1" d="M5.19,205.7c2.91,5.09,25.07,32.02,102.87,17.93,57.41-11.49,55.17-13.14,55.17-13.14l-.79-17.92-54.69-17.92-1.95-6.89-71.06-23.29s-50.79,19.9-29.54,61.23h-.01Z"/>
    </g>
  </g>
</svg>