<svg width="30" height="30" viewBox="0 0 30 30" fill="none" xmlns="http://www.w3.org/2000/svg">
<g clip-path="url(#clip0_133_517)">
<path d="M14.9743 17.3163C16.0716 17.3163 16.9612 16.3901 16.9612 15.2475C16.9612 14.1049 16.0716 13.1787 14.9743 13.1787C13.8769 13.1787 12.9873 14.1049 12.9873 15.2475C12.9873 16.3901 13.8769 17.3163 14.9743 17.3163Z" fill="black"/>
<path d="M19.9249 0.970887C17.5249 -1.55927 14.9736 1.65947 14.9736 1.65947V7.38082L15.4101 7.68686V12.0907L16.6432 12.575C16.6432 12.575 16.7071 12.777 18.8234 8.87734C21.5878 3.5569 20.2144 1.30447 19.9256 0.971652H19.9249V0.970887Z" fill="black"/>
<path d="M10.0228 0.970904C9.73401 1.30372 8.36062 3.55615 11.125 8.87659C13.2406 12.777 13.3053 12.5743 13.3053 12.5743L14.5383 12.09V7.68611L14.9748 7.38008V1.65872C14.9748 1.65872 12.4227 -1.56002 10.0235 0.970139H10.0228V0.970904Z" fill="black"/>
<path d="M29.6141 15.7617C31.1837 12.6041 27.4559 11.0709 27.4559 11.0709L22.2298 12.8382L22.085 13.3646L18.0626 14.725L18.0009 16.0952C18.0009 16.0952 17.8355 16.2215 22.052 17.112C27.766 18.2069 29.3995 16.1503 29.6141 15.7617Z" fill="black"/>
<path d="M26.5555 5.95471C26.1623 5.77185 23.6801 5.10698 19.6738 9.4879C16.7646 12.7877 16.9689 12.7885 16.9689 12.7885L17.7927 13.8596L21.8151 12.4993L22.2295 12.8367L27.4556 11.0693C27.4556 11.0693 29.6072 7.54839 26.5555 5.95317V5.95471Z" fill="black"/>
<path d="M18.7826 29.9281C22.1371 30.5929 22.4839 26.4347 22.4839 26.4347L19.3646 21.7248L18.8384 21.7309L16.4377 18.1059L15.1584 18.4356C15.1584 18.4356 14.9953 18.3071 15.3796 22.7683C16.0042 28.7827 18.363 29.8248 18.7826 29.9288V29.9281Z" fill="black"/>
<path d="M26.9363 24.0751C26.9921 23.6306 26.8959 20.9643 21.719 18.2176C17.8509 16.2574 17.9082 16.4617 17.9082 16.4617L17.1572 17.5894L19.5579 21.2145L19.3654 21.724L22.4847 26.4339C22.4847 26.4339 26.3403 27.5754 26.9363 24.0744V24.0751Z" fill="black"/>
<path d="M2.96569 23.9596C3.52784 27.4668 7.39449 26.3666 7.39449 26.3666L10.5594 21.6896L10.372 21.1777L12.808 17.578L12.068 16.4426C12.068 16.4426 12.1275 16.2391 8.24027 18.1579C3.03697 20.8495 2.91352 23.5143 2.96569 23.9596Z" fill="black"/>
<path d="M11.0606 29.899C11.4809 29.8003 13.85 28.7827 14.5334 22.7752C14.9618 18.3178 14.7972 18.4448 14.7972 18.4448L13.5215 18.1013L11.0856 21.701L10.5594 21.6896L7.39453 26.3666C7.39453 26.3666 7.70022 30.5279 11.0613 29.899H11.0606Z" fill="black"/>
<path d="M3.46577 5.9394C0.409625 7.52544 2.55238 11.0533 2.55238 11.0533L7.77405 12.8352L8.18923 12.4985L12.208 13.8696L13.0339 12.8007C13.0339 12.8007 13.2382 12.8007 10.3379 9.49249C6.34261 5.1001 3.8589 5.75808 3.46577 5.94017V5.9394Z" fill="black"/>
<path d="M0.382092 15.7379C0.595926 16.1274 2.2243 18.1877 7.94124 17.1097C12.1599 16.2306 11.9953 16.1044 11.9953 16.1044L11.9372 14.7334L7.91846 13.3623L7.77517 12.8352L2.5535 11.0533C2.5535 11.0533 -1.17868 12.5758 0.382827 15.7379H0.382092Z" fill="black"/>
</g>
<defs>
<clipPath id="clip0_133_517">
<rect width="30" height="30" fill="white"/>
</clipPath>
</defs>
</svg>
